<svg xmlns="http://www.w3.org/2000/svg" width="27" height="27"><path fill="#fff" d="M15.414 6.047c.826 0 1.496.601 1.496 1.488 0 .886-.67 1.487-1.496 1.487s-1.496-.6-1.496-1.487c0-.887.67-1.488 1.496-1.488zm-1.136 4.017c1.04.107 1.53.937 1.349 1.85l-2.175 7.19c-.029.162.057.326.205.378.16.056.495-.15.766-.446l1.305-1.571c.036.262-.023.726-.023.902-.981 1.472-1.98 2.608-3.659 2.608-1.146-.187-1.616-1.008-1.368-1.845l2.16-7.154c.052-.176-.035-.363-.195-.419-.16-.056-.472.151-.742.447l-1.305 1.57c-.036-.262-.004-.699-.004-.874.981-1.473 2.593-2.636 3.686-2.636zM.667 13.584c0 7.179 5.82 13 13 13s13-5.821 13-13c0-7.18-5.82-13-13-13s-13 5.82-13 13z"/><path d="M15.414 6.047c.826 0 1.496.601 1.496 1.488 0 .886-.67 1.487-1.496 1.487s-1.496-.6-1.496-1.487c0-.887.67-1.488 1.496-1.488zm-1.136 4.017c1.04.107 1.53.937 1.349 1.85l-2.175 7.19c-.029.162.057.326.205.378.16.056.495-.15.766-.446l1.305-1.571c.036.262-.023.726-.023.902-.981 1.472-1.98 2.608-3.659 2.608-1.146-.187-1.616-1.008-1.368-1.845l2.16-7.154c.052-.176-.035-.363-.195-.419-.16-.056-.472.151-.742.447l-1.305 1.57c-.036-.262-.004-.699-.004-.874.981-1.473 2.593-2.636 3.686-2.636zM.667 13.584c0 7.179 5.82 13 13 13s13-5.821 13-13c0-7.18-5.82-13-13-13s-13 5.82-13 13z"/></svg>