<svg xmlns="http://www.w3.org/2000/svg" width="30" height="30"><path fill="#fff" d="M28.592 28.573l-.71.709a2.006 2.006 0 01-2.837 0l-5.674-5.675c-.658-.658-.73-1.643-.284-2.41l-3.102-3.103a9.974 9.974 0 01-5.964 1.98c-5.54 0-10.032-4.492-10.032-10.032S4.481.01 10.021.01s10.031 4.492 10.031 10.032a9.986 9.986 0 01-2.58 6.7l3.034 3.036c.768-.447 1.753-.375 2.411.282l5.675 5.675a2.006 2.006 0 010 2.838zM17.523 10A7.523 7.523 0 0010 2.477a7.45 7.45 0 00-3.22.749c.523.538 1.313 1.342 1.355 1.342-.815 0-3.484 2.669-3.484 3.546 0-.042-.85-.848-1.405-1.371A7.45 7.45 0 002.476 10a7.524 7.524 0 0015.047 0z"/><path d="M28.592 28.573l-.71.709a2.006 2.006 0 01-2.837 0l-5.674-5.675c-.658-.658-.73-1.643-.284-2.41l-3.102-3.103a9.974 9.974 0 01-5.964 1.98c-5.54 0-10.032-4.492-10.032-10.032S4.481.01 10.021.01s10.031 4.492 10.031 10.032a9.986 9.986 0 01-2.58 6.7l3.034 3.036c.768-.447 1.753-.375 2.411.282l5.675 5.675a2.006 2.006 0 010 2.838zM17.523 10A7.523 7.523 0 0010 2.477a7.45 7.45 0 00-3.22.749c.523.538 1.313 1.342 1.355 1.342-.815 0-3.484 2.669-3.484 3.546 0-.042-.85-.848-1.405-1.371A7.45 7.45 0 002.476 10a7.524 7.524 0 0015.047 0z"/></svg>